<?xml version="1.0" encoding="iso-8859-1"?>
<!-- Uploaded to: SVG Repo, www.svgrepo.com, Generator: SVG Repo Mixer Tools -->
<!DOCTYPE svg PUBLIC "-//W3C//DTD SVG 1.1//EN" "http://www.w3.org/Graphics/SVG/1.1/DTD/svg11.dtd">
<svg fill="#000000" version="1.1" id="Capa_1" xmlns="http://www.w3.org/2000/svg" xmlns:xlink="http://www.w3.org/1999/xlink" 
	 width="800px" height="800px" viewBox="0 0 448.266 448.266"
	 xml:space="preserve">
<g>
	<path d="M195.774,230.728c0.974,1.149,23.889,28.316,23.889,41.46c0,9.04-5.037,16.859-12.408,21.019
		c-2.627-13.292-15.662-32.454-25.215-45.127c6.081-9.072,12.547-16.751,13.057-17.358l0.341-0.394L195.774,230.728z
		 M167.619,241.151c1.471,1.74,36.042,42.722,36.042,62.556c0,20.153-16.398,36.552-36.546,36.552
		c-20.161,0-36.559-16.404-36.559-36.552c0-19.834,34.575-60.815,36.042-62.556l0.517-0.603L167.619,241.151z M158.015,329.042
		c0,0-13.902-6.279-19.734-25.12C138.281,303.914,140.526,329.042,158.015,329.042z M2.802,448.266h344.604v-33.619H2.802V448.266z
		 M442.073,45.976l-20.072,14.9c0.284,0.604,0.524,1.248,0.658,1.937c8.312,42.069-20.143,67.79-21.359,68.86
		c-0.343,0.301-0.759,0.443-1.127,0.678v16.137v116.849c0,22.015-4.389,40.548-12.677,53.62
		c-8.161,12.859-19.625,19.946-32.298,19.946c-23.245,0-46.779-25.27-46.779-73.566c0-13.22-1.55-24.723-4.438-34.648v167.153
		H46.229V28.546c-6.417-1.483-11.208-7.203-11.208-14.068C35.021,6.484,41.506,0,49.495,0h251.213
		c7.996,0,14.474,6.484,14.474,14.479c0,6.865-4.788,12.585-11.207,14.068v166.7c14.054,16.162,21.248,39.611,21.248,70.091
		c0,36.871,15.442,56.758,29.976,56.758c6.697,0,13.122-4.313,18.096-12.139c4.593-7.234,10.065-20.854,10.065-44.619V148.488
		V130.16V72.843c0-2.662,1.256-5.16,3.391-6.747l45.299-33.62c3.721-2.763,8.983-1.989,11.757,1.743
		C446.575,37.94,445.795,43.207,442.073,45.976z M93.856,155.033h158.758c9.286,0,16.81-7.529,16.81-16.81V63.514
		c0-9.286-7.523-16.81-16.81-16.81H93.856c-9.287,0-16.811,7.523-16.811,16.81v74.709C77.045,147.503,84.57,155.033,93.856,155.033z
		 M244.21,289.513c0-38.161-30.936-69.101-69.106-69.101s-69.106,30.939-69.106,69.101c0,38.172,30.936,69.105,69.106,69.105
		S244.21,327.674,244.21,289.513z M407.051,71.968l-6.878,5.105v28.651C404.59,97.667,408.484,86.23,407.051,71.968z"/>
</g>
</svg>